# xmcd CD database file
#
# Track frame offsets:
#	150
#	14891
#	46314
#	69214
#	83194
#	102350
#	125637
#	158015
#	186445
#	208709
#	241239
#
# Disc length: 3625 seconds
#
# Revision: 0
# Processed by: cddbd v1.5.2PL0 Copyright (c) Steve Scherf et al.
# Submitted via: CDex 1.70beta2
#
DISCID=960e270b
DTITLE=Charlie Morris Band - What A Scene
DYEAR=2008
DGENRE=Blues
TTITLE0=Can't Do Nothing
TTITLE1=Swamp Hoe
TTITLE2=No Mo Money
TTITLE3=Can't Stop Cleaning
TTITLE4=Mr Miracle
TTITLE5=May Not Be The First One
TTITLE6=Too Many Bad Habits
TTITLE7=Don't Mess With My Money
TTITLE8=Ramblin Blues
TTITLE9=Cain't Hep M'sef
TTITLE10=Champagne and Reefer
EXTD=YEAR: 2008
EXTT0=
EXTT1=
EXTT2=
EXTT3=
EXTT4=
EXTT5=
EXTT6=
EXTT7=
EXTT8=
EXTT9=
EXTT10=
PLAYORDER=
